<svg width="24" height="24" viewBox="0 0 24 24" fill="none" xmlns="http://www.w3.org/2000/svg">
<g clip-path="url(#clip0_130_845)">
<path d="M20.2371 17.6136H19.0168C18.8032 17.6136 18.6202 17.522 18.4676 17.4L15.4168 14.3492C15.1117 14.0441 15.1117 13.5559 15.4168 13.2814C15.5693 13.1288 15.7524 13.0678 15.9659 13.0678H20.2371C20.6642 13.0678 20.9998 13.4034 20.9998 13.8305V16.8814C20.9998 17.278 20.6642 17.6136 20.2371 17.6136ZM18.6202 19.6881L15.2337 16.3017L12.1829 13.2508L4.31169 5.37966C4.0066 5.07458 3.51847 5.07458 3.24389 5.37966C2.96931 5.68475 2.93881 6.17288 3.24389 6.44746L9.80321 13.0068H8.33881V17.5831H14.3795L17.5524 20.7559C17.8574 21.061 18.3456 21.061 18.6202 20.7559C18.9252 20.4814 18.9252 19.9932 18.6202 19.6881Z" fill="#0D6EFD"/>
<path d="M6.81356 13.0373H3.76271C3.33559 13.0373 3 13.3729 3 13.8V16.8508C3 17.278 3.33559 17.6136 3.76271 17.6136H6.81356V13.0373ZM16.3322 11.5424C16.1186 11.5424 15.9356 11.4508 15.7831 11.3288C14.5322 10.0475 14.5322 8.0339 15.7831 6.75254C16.4542 6.08136 16.4542 4.98305 15.7831 4.31186C15.478 4.00678 15.478 3.51864 15.7831 3.24407C16.0881 2.96949 16.5763 2.93898 16.8508 3.24407C18.1017 4.52542 18.1017 6.53898 16.8508 7.82034C16.1797 8.49153 16.1797 9.58983 16.8508 10.261C17.1559 10.5661 17.1559 11.0542 16.8508 11.3288C16.7288 11.4508 16.5458 11.5424 16.3322 11.5424ZM19.5051 11.5424C19.2915 11.5424 19.1085 11.4508 18.9559 11.3288C17.7051 10.0475 17.7051 8.0339 18.9559 6.75254C19.6271 6.08136 19.6271 4.98305 18.9559 4.31186C18.6508 4.00678 18.6508 3.51864 18.9559 3.24407C19.261 2.96949 19.7492 2.93898 20.0237 3.24407C21.2746 4.52542 21.2746 6.53898 20.0237 7.82034C19.3525 8.49153 19.3525 9.58983 20.0237 10.261C20.3288 10.5661 20.3288 11.0542 20.0237 11.3288C19.9017 11.4508 19.7186 11.5424 19.5051 11.5424Z" fill="#0D6EFD"/>
</g>
<defs>
<clipPath id="clip0_130_845">
<rect width="18" height="18" fill="white" transform="translate(3 3)"/>
</clipPath>
</defs>
</svg>
